<svg width="20" height="20" viewBox="0 0 20 20" fill="none" xmlns="http://www.w3.org/2000/svg">
<g clip-path="url(#clip0)">
<path d="M3.62428 12.5232C4.43488 12.5232 5.09409 11.6382 5.09409 10.5503C5.09409 9.46245 4.43488 8.57751 3.62428 8.57751C2.8135 8.57751 2.1543 9.46245 2.1543 10.5503C2.1543 11.6382 2.8135 12.5232 3.62428 12.5232Z" fill="#9C9C9C"/>
<path d="M7.12818 12.5232C7.93793 12.5232 8.59799 11.6382 8.59799 10.5503C8.59799 9.46245 7.93802 8.57751 7.12818 8.57751C6.31741 8.57751 5.6582 9.46245 5.6582 10.5503C5.6582 11.6382 6.31741 12.5232 7.12818 12.5232Z" fill="#9C9C9C"/>
<path d="M9.87098 11.5391C9.23344 11.4136 8.60446 11.9759 8.43816 12.8204C8.27212 13.664 8.64085 14.423 9.27848 14.5484C9.91533 14.6738 10.5451 14.1114 10.7111 13.2679C10.8774 12.4234 10.5077 11.6645 9.87098 11.5391Z" fill="#9C9C9C"/>
<path d="M2.31273 12.8204C2.14643 11.9759 1.51754 11.4136 0.879915 11.5391C0.243145 11.6645 -0.126533 12.4234 0.0397664 13.268C0.205809 14.1115 0.835557 14.6739 1.47241 14.5485C2.11004 14.423 2.47877 13.664 2.31273 12.8204Z" fill="#9C9C9C"/>
<path d="M7.59444 14.9914C7.42146 13.9225 6.4926 13.1036 5.37568 13.1036C4.25877 13.1036 3.32982 13.9225 3.15692 14.9914C2.3619 15.3382 1.80469 16.1315 1.80469 17.0527C1.80469 18.2922 2.81311 19.3007 4.05265 19.3007C4.54692 19.3007 5.0042 19.1399 5.37577 18.8685C5.74725 19.1399 6.20453 19.3007 6.69889 19.3007C7.93843 19.3007 8.94685 18.2922 8.94685 17.0527C8.94676 16.1315 8.38938 15.3382 7.59444 14.9914Z" fill="#9C9C9C"/>
<path d="M12.8723 4.64486C13.6829 4.64486 14.3421 3.75992 14.3421 2.67204C14.3421 1.58415 13.6829 0.699219 12.8723 0.699219C12.0615 0.699219 11.4023 1.58415 11.4023 2.67204C11.4023 3.75992 12.0615 4.64486 12.8723 4.64486Z" fill="#9C9C9C"/>
<path d="M16.3762 4.64486C17.186 4.64486 17.846 3.75992 17.846 2.67204C17.846 1.58415 17.1861 0.699219 16.3762 0.699219C15.5655 0.699219 14.9062 1.58415 14.9062 2.67204C14.9062 3.75992 15.5655 4.64486 16.3762 4.64486Z" fill="#9C9C9C"/>
<path d="M19.119 3.66081C18.4815 3.53528 17.8525 4.09763 17.6862 4.94215C17.5202 5.78572 17.8889 6.54469 18.5265 6.67014C19.1634 6.79551 19.7931 6.23316 19.9592 5.38958C20.1255 4.54515 19.7558 3.78618 19.119 3.66081Z" fill="#9C9C9C"/>
<path d="M10.7205 6.67026C11.358 6.54472 11.7268 5.78576 11.5608 4.94227C11.3945 4.09775 10.7656 3.5354 10.128 3.66094C9.49119 3.7863 9.12151 4.54519 9.28781 5.38979C9.45394 6.23328 10.0837 6.79563 10.7205 6.67026Z" fill="#9C9C9C"/>
<path d="M16.8425 7.11313C16.6695 6.04425 15.7406 5.22534 14.6237 5.22534C13.5068 5.22534 12.5779 6.04425 12.405 7.11313C11.61 7.45994 11.0527 8.25317 11.0527 9.17441C11.0527 10.414 12.0612 11.4224 13.3007 11.4224C13.795 11.4224 14.2523 11.2616 14.6238 10.9902C14.9953 11.2616 15.4526 11.4224 15.9469 11.4224C17.1865 11.4224 18.1949 10.414 18.1949 9.17441C18.1948 8.25317 17.6374 7.45994 16.8425 7.11313Z" fill="#9C9C9C"/>
</g>
<defs>
<clipPath id="clip0">
<rect width="20" height="20" fill="white"/>
</clipPath>
</defs>
</svg>
