<svg width="23" height="22" viewBox="0 0 23 22" fill="none" xmlns="http://www.w3.org/2000/svg">
<path d="M22.7997 19.7798L12.4177 1.01672C12.2277 0.673297 11.8767 0.461792 11.4969 0.461792C11.117 0.461792 10.7657 0.673297 10.5758 1.01672L0.142447 19.873C-0.0474824 20.2165 -0.0474824 20.6395 0.142447 20.9829C0.332377 21.3263 0.68367 21.5378 1.06353 21.5378H21.9302C21.9324 21.5378 21.9348 21.5381 21.9363 21.5378C22.524 21.5378 22.9999 21.0412 22.9999 20.428C22.9999 20.186 22.9255 19.9621 22.7997 19.7798ZM14.0869 19.3181C15.1451 18.6871 17.3701 16.8996 15.1034 13.9591C15.1034 13.9591 15.8391 16.6037 14.2847 16.6037C14.0848 16.6037 13.6214 16.2892 14.0119 15.6277C14.0119 15.6277 15.2013 13.3287 13.388 12.4945C13.388 12.4945 13.9088 13.5139 13.0701 14.2144C12.7279 12.9257 11.251 12.0045 11.251 12.0045C9.83888 11.0345 10.6372 9.48105 10.6372 9.48105C8.11918 10.6394 9.7702 13.8317 9.7702 13.8317C10.3117 14.75 9.6687 15.1879 9.39125 15.1879C7.23244 15.1879 8.25411 11.5152 8.25411 11.5152C4.94265 15.8116 8.53338 18.5111 9.8799 19.3181H2.90569L11.4969 3.79134L20.0881 19.3184L14.0869 19.3181Z" fill="#9C9C9C"/>
</svg>
