<?xml version="1.0" encoding="iso-8859-1"?>
<!-- Generator: Adobe Illustrator 19.0.0, SVG Export Plug-In . SVG Version: 6.00 Build 0)  -->
<svg version="1.1" id="Capa_1" xmlns="http://www.w3.org/2000/svg" xmlns:xlink="http://www.w3.org/1999/xlink" x="0px" y="0px"
	 viewBox="0 0 720 720" style="enable-background:new 0 0 720 720;" xml:space="preserve">
<g>
	<g>
		<path d="M354.312,490.917l-76.979-17.107V307.629c72.24-10.408,128-72.547,128-147.629c0-6.521-0.542-13.427-1.646-21.052
			c0.021-0.625-0.021-1.271-0.125-1.906l-19.688-128C383.083,3.844,378.604,0,373.333,0h-93.875C274.375,0,270,3.594,269,8.573
			l-12.792,64c-0.625,3.135,0.188,6.385,2.208,8.854c2.021,2.469,5.063,3.906,8.25,3.906h46.75l-41.042,82.052l4.896-48.99
			c0.313-3-0.667-5.99-2.688-8.219c-2.021-2.24-4.896-3.51-7.917-3.51h-51.708l13.5-94.49c0.438-3.063-0.479-6.167-2.5-8.5
			C223.937,1.344,220.979,0,217.896,0h-79.229c-5.271,0-9.75,3.844-10.542,9.042l-19.708,128c-0.104,0.656-0.146,1.313-0.104,1.969
			c-1.104,7.604-1.646,14.49-1.646,20.99c0,75.082,55.76,137.221,128,147.629V473.81l-76.979,17.107
			c-5.313,1.188-8.875,6.177-8.292,11.583C150,507.906,154.562,512,160,512h192c5.438,0,10-4.094,10.604-9.5
			C363.187,497.094,359.625,492.104,354.312,490.917z"/>
	</g>
</g>
<g>
</g>
<g>
</g>
<g>
</g>
<g>
</g>
<g>
</g>
<g>
</g>
<g>
</g>
<g>
</g>
<g>
</g>
<g>
</g>
<g>
</g>
<g>
</g>
<g>
</g>
<g>
</g>
<g>
</g>
</svg>
