<svg width="21" height="21" viewBox="0 0 21 21" fill="none" xmlns="http://www.w3.org/2000/svg">
<path d="M10.2381 0.282083C9.70256 0.539752 5.35283 2.94425 5.26442 3.03287L5.16383 3.12947L5.15165 5.63855C5.14367 7.01594 5.15165 8.22008 5.16383 8.31668C5.18798 8.48594 5.19596 8.49392 7.73339 10.5681C9.13472 11.7118 10.3267 12.6664 10.3911 12.6906C10.4678 12.7187 10.5321 12.7187 10.6127 12.6906C10.7618 12.6343 15.651 8.63903 15.7678 8.47796L15.8564 8.34902L15.8484 5.73515L15.8362 3.12128L15.7155 3.01649C15.5544 2.87159 10.7135 0.237563 10.5604 0.209423C10.4798 0.193463 10.375 0.217612 10.2381 0.282083ZM12.5579 2.19098C13.6856 2.80712 14.6079 3.31868 14.6079 3.33065C14.6079 3.37097 10.5604 5.92436 10.4999 5.92436C10.4394 5.92436 6.39191 3.37118 6.39191 3.33086C6.39191 3.31469 10.4556 1.07945 10.4917 1.07546C10.4999 1.07546 11.4302 1.57883 12.5579 2.19098ZM8.1158 5.42099L10.0974 6.68162V9.05777V11.4299L9.86783 11.2487C9.73889 11.1481 8.80859 10.3869 7.80185 9.56135L5.96939 8.05922L5.95721 6.05351L5.94923 4.0478L6.03785 4.10429C6.08993 4.13621 7.02422 4.72841 8.1158 5.42099ZM15.0347 8.02688C15.0267 8.05103 14.1245 8.80409 13.029 9.69428C11.9378 10.5883 11.0115 11.3453 10.9752 11.3776C10.9067 11.4341 10.9027 11.3212 10.9027 9.06197V6.68183L12.9687 5.36891L15.0307 4.05599L15.0426 6.02138C15.0468 7.10057 15.0429 8.00252 15.0347 8.02688Z" fill="black"/>
<path d="M1.33045 3.93512C0.915698 4.02374 0.512918 4.34986 0.327698 4.75265L0.210938 5.00234V8.6471C0.210938 12.018 0.214928 12.316 0.283388 12.6342C0.396158 13.1497 0.573398 13.4838 1.00033 13.9672C1.49572 14.5271 2.24878 15.4293 3.61 17.1046L4.74169 18.4942V19.5091V20.5281L4.85845 20.657C5.01553 20.8342 5.25304 20.8422 5.41831 20.6772L5.52709 20.5684L5.53906 19.4165C5.54704 18.5144 5.53906 18.2445 5.49475 18.1599C5.4223 18.0068 2.74816 14.7205 2.00707 13.8666C1.35859 13.1216 1.3063 13.0571 1.21369 12.8557C1.02448 12.4449 1.01629 12.2799 1.01629 8.62694C1.01629 5.24804 1.01629 5.20373 1.10092 5.06261C1.3546 4.63169 1.95877 4.63169 2.17213 5.06261C2.24059 5.19155 2.24458 5.39293 2.24458 7.45094V9.69814L2.0875 9.88736C2.00287 9.99215 1.90627 10.1291 1.87393 10.1975C1.69312 10.5722 1.68094 11.0514 1.84201 11.4863C1.92664 11.7158 2.03122 11.8286 3.73075 13.5281C5.01154 14.8129 5.55922 15.3364 5.64385 15.3566C5.82907 15.4009 6.03865 15.272 6.10291 15.0748C6.13105 14.9901 6.14323 14.8814 6.12706 14.8331C6.11488 14.7848 5.3257 13.9672 4.37923 13.0168C3.43276 12.0623 2.63539 11.2406 2.60725 11.1843C2.52661 11.0352 2.54278 10.6889 2.63539 10.5358C2.67571 10.4594 2.78848 10.3466 2.8771 10.2822C3.01402 10.1895 3.08647 10.1654 3.25972 10.1654C3.38047 10.1654 3.52159 10.1895 3.57388 10.2177C3.7108 10.2861 7.27513 13.8383 7.53679 14.1646C7.99585 14.7405 8.22538 15.26 8.37049 16.0576C8.39863 16.2226 8.42677 17.1046 8.44294 18.4417L8.46709 20.5682L8.57587 20.6769C8.74492 20.842 8.97865 20.834 9.13972 20.6528L9.25648 20.5199L9.2443 18.3008C9.22813 16.2025 9.22414 16.0576 9.13951 15.6951C8.97025 14.9299 8.70859 14.3419 8.31799 13.8144C8.05234 13.4599 4.33492 9.7265 4.09741 9.57341C3.87187 9.4325 3.53755 9.3317 3.28387 9.3317H3.09046V7.34615C3.09046 6.25877 3.07429 5.26 3.05014 5.12708C2.94136 4.45444 2.40985 3.96725 1.72504 3.91475C1.6003 3.90676 1.42327 3.91496 1.33045 3.93512Z" fill="black"/>
<path d="M19.0073 3.95506C18.7053 4.03969 18.5684 4.12012 18.3588 4.33369C18.1412 4.54726 18.0085 4.79674 17.952 5.09893C17.9279 5.22787 17.9117 6.13402 17.9117 7.32199V9.33169H17.7183C17.4646 9.33169 17.1303 9.43228 16.9047 9.5734C16.6674 9.72649 12.95 13.4599 12.6844 13.8141C12.2938 14.3417 12.0319 14.9297 11.8629 15.6949C11.7782 16.0574 11.7742 16.2023 11.7581 18.3006L11.7461 20.5197L11.8629 20.6526C12.0239 20.8338 12.2574 20.8418 12.4267 20.6767L12.5355 20.568L12.5596 18.4415C12.5758 17.1044 12.6039 16.2224 12.6321 16.0574C12.777 15.26 13.0065 14.7405 13.4658 14.1644C13.7274 13.8381 17.2918 10.2861 17.4287 10.2175C17.481 10.1893 17.6221 10.1652 17.7428 10.1652C18.1374 10.1652 18.4476 10.4754 18.4476 10.8779C18.4476 10.9947 18.4235 11.1316 18.3953 11.1841C18.3672 11.2404 17.5696 12.0621 16.6233 13.0166C14.7627 14.8854 14.7789 14.8692 14.9198 15.143C14.9923 15.2879 15.2098 15.3927 15.3587 15.3564C15.4394 15.3362 16.0232 14.7806 17.2718 13.5279C18.9713 11.8284 19.0761 11.7156 19.1608 11.4861C19.3218 11.0512 19.3099 10.572 19.1286 10.1973C19.0965 10.1289 18.9997 9.99193 18.9153 9.88714L18.7582 9.69793V7.45093C18.7582 5.39293 18.7622 5.19154 18.8306 5.0626C19.044 4.63168 19.6482 4.63168 19.9019 5.0626C19.9865 5.20351 19.9865 5.24782 19.9865 8.62693C19.9865 12.2797 19.9785 12.4449 19.7891 12.8557C19.6965 13.0571 19.6442 13.1216 18.9957 13.8666C18.2305 14.7526 15.6046 17.9826 15.516 18.1519C15.4595 18.2567 15.4555 18.4337 15.4637 19.4205L15.4759 20.5684L15.5847 20.6772C15.7497 20.8422 15.9875 20.8342 16.1445 20.657L16.2613 20.5281V19.5091V18.4942L17.393 17.1046C18.7542 15.4293 19.5073 14.5271 20.0029 13.9672C20.4298 13.484 20.607 13.1497 20.7198 12.6342C20.7883 12.316 20.7923 12.018 20.7923 8.64709V5.00233L20.6755 4.75264C20.3886 4.12831 19.6518 3.77383 19.0073 3.95506Z" fill="black"/>
</svg>
